<?xml version="1.0" encoding="utf-8"?>
<!DOCTYPE svg PUBLIC "-//W3C//DTD SVG 1.1//EN" "http://www.w3.org/Graphics/SVG/1.1/DTD/svg11.dtd">
<svg version="1.1" id="StrixEye" xmlns="http://www.w3.org/2000/svg" xmlns:xlink="http://www.w3.org/1999/xlink" x="0px" y="0px" viewBox="0 0 595.276 549.052" enable-background="new 0 0 595.276 549.052" xml:space="preserve">
<linearGradient id="SVGID_1_" gradientUnits="userSpaceOnUse" x1="-1.833132e-007" y1="274.5258" x2="595.2756" y2="274.5258">
	<stop  offset="0" style="stop-color:#7657A4"/>
	<stop  offset="1" style="stop-color:#6F57A4"/>
</linearGradient>
<path fill="url(#SVGID_1_)" d="M375.86,211.25l-37.545,31.144l-40.487-23.874l-40.192,23.843L220.412,211.7L0,0l59.013,163.219
	l2.281,6.726l181.956,94.88l53.606,280.188l0.798,4.039l55.02-284.863l181.029-94.074l0.277-0.145l2.278-6.711L595.276,0.024
	L375.86,211.25z M78.775,155.207l-27.869-77.2l52.692,50.72c-2.866,4.355-4.79,10.123-4.79,15.333
	c0,14.696,11.956,26.652,26.653,26.652c5.726,0,11.437-2.087,16.043-5.493l51.206,49.233L78.775,155.207z M297.641,434.738
	L264.6,262.614l33.204-19.659l33.326,19.659L297.641,434.738z M516.83,155.216l-113.13,58.92l50.345-48.6
	c4.606,3.406,10.043,5.203,15.768,5.203c14.696,0,26.652-11.957,26.652-26.653c0-5.211-1.843-10.726-4.708-15.08l52.85-50.997
	L516.83,155.216z"/>
</svg>
